<svg width="24" height="24" viewBox="0 0 24 24" fill="none" xmlns="http://www.w3.org/2000/svg">
<path d="M23.416 13.6189C23.1705 13.5575 22.925 13.6189 22.7101 13.7724C21.9122 14.4475 20.9915 14.9999 19.9788 15.3682C19.0274 15.7365 17.984 15.9206 16.8792 15.9206C14.3933 15.9206 12.1223 14.9079 10.4958 13.2813C8.86923 11.6548 7.85648 9.38378 7.85648 6.89794C7.85648 5.8545 8.04062 4.84175 8.34751 3.92107C8.68509 2.93901 9.17612 2.04902 9.8206 1.28178C10.0968 0.944202 10.0354 0.453172 9.69784 0.176967C9.48302 0.0235206 9.2375 -0.0378582 8.99199 0.0235205C6.38339 0.729376 4.11238 2.29453 2.48584 4.38141C0.920681 6.4376 0 8.98482 0 11.7469C0 15.092 1.35033 18.1303 3.55997 20.3399C5.7696 22.5495 8.77716 23.8999 12.153 23.8999C14.9764 23.8999 17.585 22.9178 19.6719 21.2913C21.7895 19.634 23.3239 17.2709 23.9684 14.5703C24.0912 14.1406 23.8456 13.711 23.416 13.6189Z" fill="white"/>
</svg>
