<svg width="24" height="24" viewBox="0 0 24 24" fill="none" xmlns="http://www.w3.org/2000/svg">
<g clip-path="url(#clip0)">
<path d="M23.4327 13.6527C23.1873 13.5913 22.9419 13.6527 22.7272 13.806C21.9298 14.4808 21.0097 15.0329 19.9975 15.4009C19.0467 15.769 18.0039 15.953 16.8997 15.953C14.4154 15.953 12.1457 14.9409 10.5202 13.3153C8.8946 11.6897 7.88245 9.42007 7.88245 6.93572C7.88245 5.8929 8.06648 4.88076 8.37319 3.96063C8.71057 2.97915 9.20131 2.08969 9.8454 1.32292C10.1214 0.985538 10.0601 0.494801 9.72271 0.218762C9.50802 0.0654071 9.26265 0.00406507 9.01728 0.0654071C6.41024 0.770841 4.14059 2.33506 2.51502 4.42069C0.950802 6.47565 0 9.02135 0 11.8124C0 15.1556 1.34953 18.192 3.55784 20.4003C5.76615 22.6086 8.80258 23.9581 12.1457 23.9581C14.9675 23.9581 17.5745 22.9767 19.6601 21.3511C21.7764 19.6949 23.31 17.3332 23.9541 14.6341C24.1074 14.1741 23.8621 13.7447 23.4327 13.6527ZM18.74 20.0629C16.9611 21.4738 14.6914 22.3326 12.2071 22.3326C9.29332 22.3326 6.65561 21.1364 4.75401 19.2348C2.85241 17.3332 1.65624 14.6955 1.65624 11.7817C1.65624 9.35873 2.45368 7.15041 3.83388 5.37149C4.78468 4.14465 5.98085 3.13251 7.36105 2.42708C7.20769 2.76446 7.05434 3.10184 6.93165 3.46989C6.53293 4.57405 6.3489 5.73955 6.3489 6.96639C6.3489 9.88013 7.54507 12.5485 9.44668 14.4501C11.3483 16.3517 14.0167 17.5479 16.9304 17.5479C18.2186 17.5479 19.4454 17.3332 20.5803 16.9038C20.979 16.7504 21.3777 16.5971 21.7458 16.4131C21.0097 17.8239 19.9975 19.0814 18.74 20.0629Z" fill="black"/>
</g>
<defs>
<clipPath id="clip0">
<rect width="24" height="24" fill="white"/>
</clipPath>
</defs>
</svg>
